<svg xml:space="preserve" style="enable-background:new 0 0 220 38.2;" viewBox="0 0 220 38.2" y="0px" x="0px" xmlns:xlink="http://www.w3.org/1999/xlink" xmlns="http://www.w3.org/2000/svg" id="Camada_1" version="1.1">
<style type="text/css">
	.st0{fill:#1D1D1B;}
</style>
<g>
	<path d="M17.6,9v1.3c0,3.9-1.2,6.3-3.8,7.5v0.1c3.2,1.2,4.4,4,4.4,8V29c0,5.8-3.1,8.9-9,8.9h-9.3V0.3h8.9
		C15,0.3,17.6,3.2,17.6,9z M5.9,5.7v9.9h2.3c2.2,0,3.5-1,3.5-4v-2c0-2.7-0.9-3.9-3-3.9L5.9,5.7L5.9,5.7z M5.9,21v11.5h3.4
		c2,0,3.1-0.9,3.1-3.7v-3.3C12.3,22,11.2,21,8.5,21H5.9L5.9,21z" class="st0"></path>
	<path d="M48.9,37.9H43l-1-6.8h-7.2l-1,6.8h-5.4l6-37.5H43L48.9,37.9z M35.4,26h5.7L38.3,7h-0.1L35.4,26L35.4,26z" class="st0"></path>
	<path d="M67.6-0.1c5.7,0,8.7,3.4,8.7,9.4v1.2h-5.6V9c0-2.7-1.1-3.7-2.9-3.7s-2.9,1-2.9,3.7s1.2,4.8,5,8.1
		c4.9,4.3,6.5,7.5,6.5,11.7c0,6-3,9.4-8.8,9.4s-8.8-3.4-8.8-9.4v-2.3h5.6v2.7c0,2.7,1.2,3.6,3.1,3.6s3.1-1,3.1-3.6s-1.2-4.8-5-8.1
		c-4.9-4.3-6.5-7.5-6.5-11.7C58.9,3.3,61.9-0.1,67.6-0.1L67.6-0.1z" class="st0"></path>
	<path d="M87.8,0.3h5.9v37.5h-5.9V0.3z" class="st0"></path>
	<path d="M123.1,23.9v5c0,6-3,9.4-8.8,9.4s-8.8-3.4-8.8-9.4V9.4c0-6,3-9.4,8.8-9.4s8.8,3.4,8.8,9.4V13h-5.6V9
		c0-2.7-1.2-3.7-3.1-3.7s-3.1,1-3.1,3.7v20.3c0,2.7,1.2,3.6,3.1,3.6s3.1-1,3.1-3.6v-5.4C117.5,23.9,123.1,23.9,123.1,23.9z" class="st0"></path>
	<path d="M142.4,22.9l-1.8,3.4v11.5h-5.9V0.3h5.9v16.2h0.1l7.6-16.2h5.9L146,17l8.2,20.8h-6.1L142.4,22.9L142.4,22.9z" class="st0"></path>
	<path d="M164.9,0.3h5.9v37.5h-5.9V0.3z" class="st0"></path>
	<path d="M188.5,10.7h-0.1v27.2h-5.3V0.3h7.4l5.9,22.5h0.1V0.3h5.3v37.5h-6.1L188.5,10.7z" class="st0"></path>
	<path d="M214.1,0.3h5.9v37.5h-5.9V0.3z" class="st0"></path>
</g>
</svg>
